<?xml version="1.0" encoding="UTF-8" standalone="no"?>
<!DOCTYPE svg PUBLIC "-//W3C//DTD SVG 1.1//EN"
 "http://www.w3.org/Graphics/SVG/1.1/DTD/svg11.dtd">
<!-- Generated by graphviz version 11.0.0 (20240428.1522)
 -->
<!-- Pages: 1 -->
<svg width="526pt" height="521pt"
 viewBox="0.00 0.00 526.00 521.00" xmlns="http://www.w3.org/2000/svg" xmlns:xlink="http://www.w3.org/1999/xlink">
<g id="graph0" class="graph" transform="scale(1 1) rotate(0) translate(4 517)">
<polygon fill="white" stroke="none" points="-4,4 -4,-517 522,-517 522,4 -4,4"/>
<!-- 0 -->
<g id="node1" class="node">
<title>0</title>
<ellipse fill="none" stroke="black" cx="177" cy="-495" rx="27" ry="18"/>
<text text-anchor="middle" x="177" y="-489.2" font-family="Helvetica,sans-Serif" font-size="14.00">Age</text>
</g>
<!-- 1 -->
<g id="node2" class="node">
<title>1</title>
<polygon fill="palegreen" stroke="black" points="166,-390 112,-390 112,-354 166,-354 166,-390"/>
<text text-anchor="middle" x="139" y="-366.2" font-family="Helvetica,sans-Serif" font-size="14.00">Yes</text>
</g>
<!-- 0&#45;&gt;1 -->
<g id="edge1" class="edge">
<title>0&#45;&gt;1</title>
<path fill="none" stroke="black" d="M171.64,-476.92C165.45,-457.21 155.18,-424.52 147.81,-401.06"/>
<polygon fill="black" stroke="black" points="151.25,-400.32 144.91,-391.83 144.57,-402.42 151.25,-400.32"/>
<text text-anchor="middle" x="139.47" y="-440.69" font-family="Helvetica,sans-Serif" font-size="14.00">&#39;31&#45;40&#39;</text>
</g>
<!-- 2 -->
<g id="node3" class="node">
<title>2</title>
<ellipse fill="none" stroke="black" cx="279" cy="-372" rx="40.62" ry="18"/>
<text text-anchor="middle" x="279" y="-366.2" font-family="Helvetica,sans-Serif" font-size="14.00">Student</text>
</g>
<!-- 0&#45;&gt;2 -->
<g id="edge2" class="edge">
<title>0&#45;&gt;2</title>
<path fill="none" stroke="black" d="M189.92,-478.68C207.03,-458.38 237.43,-422.31 257.9,-398.03"/>
<polygon fill="black" stroke="black" points="260.47,-400.42 264.24,-390.52 255.11,-395.91 260.47,-400.42"/>
<text text-anchor="middle" x="271.12" y="-427.7" font-family="Helvetica,sans-Serif" font-size="14.00">&#39;&lt;=30&#39;, &#39;&gt;40&#39;</text>
</g>
<!-- 3 -->
<g id="node4" class="node">
<title>3</title>
<ellipse fill="none" stroke="black" cx="190" cy="-249" rx="27" ry="18"/>
<text text-anchor="middle" x="190" y="-243.2" font-family="Helvetica,sans-Serif" font-size="14.00">Age</text>
</g>
<!-- 2&#45;&gt;3 -->
<g id="edge3" class="edge">
<title>2&#45;&gt;3</title>
<path fill="none" stroke="black" d="M267,-354.68C251.9,-334.16 225.83,-298.72 208.26,-274.83"/>
<polygon fill="black" stroke="black" points="211.17,-272.88 202.43,-266.9 205.53,-277.03 211.17,-272.88"/>
<text text-anchor="middle" x="250.62" y="-304.7" font-family="Helvetica,sans-Serif" font-size="14.00">&#39;No&#39;</text>
</g>
<!-- 8 -->
<g id="node9" class="node">
<title>8</title>
<ellipse fill="none" stroke="black" cx="353" cy="-249" rx="64.02" ry="18"/>
<text text-anchor="middle" x="353" y="-243.2" font-family="Helvetica,sans-Serif" font-size="14.00">Credit_Rating</text>
</g>
<!-- 2&#45;&gt;8 -->
<g id="edge8" class="edge">
<title>2&#45;&gt;8</title>
<path fill="none" stroke="black" d="M289.29,-354.18C301.54,-334.15 322.14,-300.46 336.59,-276.83"/>
<polygon fill="black" stroke="black" points="339.54,-278.72 341.77,-268.36 333.57,-275.07 339.54,-278.72"/>
<text text-anchor="middle" x="334.62" y="-304.7" font-family="Helvetica,sans-Serif" font-size="14.00">&#39;Yes&#39;</text>
</g>
<!-- 4 -->
<g id="node5" class="node">
<title>4</title>
<polygon fill="lightcoral" stroke="black" points="54,-144 0,-144 0,-108 54,-108 54,-144"/>
<text text-anchor="middle" x="27" y="-120.2" font-family="Helvetica,sans-Serif" font-size="14.00">No</text>
</g>
<!-- 3&#45;&gt;4 -->
<g id="edge4" class="edge">
<title>3&#45;&gt;4</title>
<path fill="none" stroke="black" d="M172.56,-235.05C145.61,-215.04 93.41,-176.3 59.4,-151.05"/>
<polygon fill="black" stroke="black" points="61.66,-148.37 51.54,-145.22 57.49,-153.99 61.66,-148.37"/>
<text text-anchor="middle" x="97.23" y="-194.75" font-family="Helvetica,sans-Serif" font-size="14.00">&#39;&lt;=30&#39;</text>
</g>
<!-- 5 -->
<g id="node6" class="node">
<title>5</title>
<ellipse fill="none" stroke="black" cx="190" cy="-126" rx="64.02" ry="18"/>
<text text-anchor="middle" x="190" y="-120.2" font-family="Helvetica,sans-Serif" font-size="14.00">Credit_Rating</text>
</g>
<!-- 3&#45;&gt;5 -->
<g id="edge5" class="edge">
<title>3&#45;&gt;5</title>
<path fill="none" stroke="black" d="M190,-230.66C190,-211.08 190,-178.89 190,-155.58"/>
<polygon fill="black" stroke="black" points="193.5,-155.82 190,-145.82 186.5,-155.82 193.5,-155.82"/>
<text text-anchor="middle" x="204.62" y="-181.7" font-family="Helvetica,sans-Serif" font-size="14.00">&#39;&gt;40&#39;</text>
</g>
<!-- 6 -->
<g id="node7" class="node">
<title>6</title>
<polygon fill="lightcoral" stroke="black" points="100,-36 46,-36 46,0 100,0 100,-36"/>
<text text-anchor="middle" x="73" y="-12.2" font-family="Helvetica,sans-Serif" font-size="14.00">No</text>
</g>
<!-- 5&#45;&gt;6 -->
<g id="edge6" class="edge">
<title>5&#45;&gt;6</title>
<path fill="none" stroke="black" d="M171.72,-108.44C152.54,-91.06 122.19,-63.56 100.2,-43.64"/>
<polygon fill="black" stroke="black" points="102.81,-41.29 93.05,-37.16 98.11,-46.47 102.81,-41.29"/>
<text text-anchor="middle" x="105.58" y="-77.74" font-family="Helvetica,sans-Serif" font-size="14.00">&#39;Excellent&#39;</text>
</g>
<!-- 7 -->
<g id="node8" class="node">
<title>7</title>
<polygon fill="palegreen" stroke="black" points="226,-36 172,-36 172,0 226,0 226,-36"/>
<text text-anchor="middle" x="199" y="-12.2" font-family="Helvetica,sans-Serif" font-size="14.00">Yes</text>
</g>
<!-- 5&#45;&gt;7 -->
<g id="edge7" class="edge">
<title>5&#45;&gt;7</title>
<path fill="none" stroke="black" d="M191.45,-107.97C192.82,-91.76 194.92,-67.06 196.56,-47.79"/>
<polygon fill="black" stroke="black" points="200.04,-48.11 197.4,-37.85 193.07,-47.52 200.04,-48.11"/>
<text text-anchor="middle" x="179.38" y="-79.58" font-family="Helvetica,sans-Serif" font-size="14.00">&#39;Fair&#39;</text>
</g>
<!-- 9 -->
<g id="node10" class="node">
<title>9</title>
<ellipse fill="none" stroke="black" cx="353" cy="-126" rx="27" ry="18"/>
<text text-anchor="middle" x="353" y="-120.2" font-family="Helvetica,sans-Serif" font-size="14.00">Age</text>
</g>
<!-- 8&#45;&gt;9 -->
<g id="edge9" class="edge">
<title>8&#45;&gt;9</title>
<path fill="none" stroke="black" d="M353,-230.66C353,-211.08 353,-178.89 353,-155.58"/>
<polygon fill="black" stroke="black" points="356.5,-155.82 353,-145.82 349.5,-155.82 356.5,-155.82"/>
<text text-anchor="middle" x="370.38" y="-181.7" font-family="Helvetica,sans-Serif" font-size="14.00">&#39;Excellent&#39;</text>
</g>
<!-- 12 -->
<g id="node13" class="node">
<title>12</title>
<polygon fill="palegreen" stroke="black" points="518,-144 464,-144 464,-108 518,-108 518,-144"/>
<text text-anchor="middle" x="491" y="-120.2" font-family="Helvetica,sans-Serif" font-size="14.00">Yes</text>
</g>
<!-- 8&#45;&gt;12 -->
<g id="edge12" class="edge">
<title>8&#45;&gt;12</title>
<path fill="none" stroke="black" d="M371.9,-231.43C395.38,-210.84 435.64,-175.54 462.78,-151.74"/>
<polygon fill="black" stroke="black" points="465.09,-154.37 470.3,-145.15 460.48,-149.11 465.09,-154.37"/>
<text text-anchor="middle" x="431.97" y="-193.29" font-family="Helvetica,sans-Serif" font-size="14.00">&#39;Fair&#39;</text>
</g>
<!-- 10 -->
<g id="node11" class="node">
<title>10</title>
<polygon fill="palegreen" stroke="black" points="370,-36 316,-36 316,0 370,0 370,-36"/>
<text text-anchor="middle" x="343" y="-12.2" font-family="Helvetica,sans-Serif" font-size="14.00">Yes</text>
</g>
<!-- 9&#45;&gt;10 -->
<g id="edge10" class="edge">
<title>9&#45;&gt;10</title>
<path fill="none" stroke="black" d="M351.39,-107.97C349.86,-91.76 347.53,-67.06 345.72,-47.79"/>
<polygon fill="black" stroke="black" points="349.2,-47.47 344.78,-37.85 342.23,-48.13 349.2,-47.47"/>
<text text-anchor="middle" x="329.8" y="-79.58" font-family="Helvetica,sans-Serif" font-size="14.00">&#39;&lt;=30&#39;</text>
</g>
<!-- 11 -->
<g id="node12" class="node">
<title>11</title>
<polygon fill="lightcoral" stroke="black" points="496,-36 442,-36 442,0 496,0 496,-36"/>
<text text-anchor="middle" x="469" y="-12.2" font-family="Helvetica,sans-Serif" font-size="14.00">No</text>
</g>
<!-- 9&#45;&gt;11 -->
<g id="edge11" class="edge">
<title>9&#45;&gt;11</title>
<path fill="none" stroke="black" d="M368.16,-111.14C386.79,-94.12 418.73,-64.94 441.67,-43.97"/>
<polygon fill="black" stroke="black" points="443.84,-46.73 448.86,-37.4 439.12,-41.56 443.84,-46.73"/>
<text text-anchor="middle" x="390.29" y="-79.26" font-family="Helvetica,sans-Serif" font-size="14.00">&#39;&gt;40&#39;</text>
</g>
</g>
</svg>
