<?xml version="1.0" encoding="UTF-8" standalone="no"?>
<!DOCTYPE svg PUBLIC "-//W3C//DTD SVG 1.1//EN"
 "http://www.w3.org/Graphics/SVG/1.1/DTD/svg11.dtd">
<!-- Generated by graphviz version 12.2.0 (20241103.1931)
 -->
<!-- Pages: 1 -->
<svg width="514pt" height="522pt"
 viewBox="0.00 0.00 514.00 522.00" xmlns="http://www.w3.org/2000/svg" xmlns:xlink="http://www.w3.org/1999/xlink">
<g id="graph0" class="graph" transform="scale(1 1) rotate(0) translate(4 518)">
<polygon fill="white" stroke="none" points="-4,4 -4,-518 510,-518 510,4 -4,4"/>
<!-- 0 -->
<g id="node1" class="node">
<title>0</title>
<ellipse fill="none" stroke="black" cx="196" cy="-496" rx="27" ry="18"/>
<text text-anchor="middle" x="196" y="-490.2" font-family="Helvetica,sans-Serif" font-size="14.00">Age</text>
</g>
<!-- 1 -->
<g id="node2" class="node">
<title>1</title>
<polygon fill="lightcoral" stroke="black" points="166,-391 112,-391 112,-355 166,-355 166,-391"/>
<text text-anchor="middle" x="139" y="-367.2" font-family="Helvetica,sans-Serif" font-size="14.00">Yes</text>
</g>
<!-- 0&#45;&gt;1 -->
<g id="edge1" class="edge">
<title>0&#45;&gt;1</title>
<path fill="none" stroke="black" d="M188.31,-478.68C178.98,-458.88 163.11,-425.19 151.9,-401.39"/>
<polygon fill="black" stroke="black" points="155.19,-400.15 147.76,-392.6 148.86,-403.14 155.19,-400.15"/>
<text text-anchor="middle" x="149.86" y="-441.73" font-family="Helvetica,sans-Serif" font-size="14.00">&#39;31&#45;40&#39;</text>
</g>
<!-- 2 -->
<g id="node3" class="node">
<title>2</title>
<ellipse fill="none" stroke="black" cx="279" cy="-373" rx="40.62" ry="18"/>
<text text-anchor="middle" x="279" y="-367.2" font-family="Helvetica,sans-Serif" font-size="14.00">Student</text>
</g>
<!-- 0&#45;&gt;2 -->
<g id="edge2" class="edge">
<title>0&#45;&gt;2</title>
<path fill="none" stroke="black" d="M206.85,-479.18C220.68,-459.03 244.76,-423.92 261.27,-399.85"/>
<polygon fill="black" stroke="black" points="263.99,-402.07 266.76,-391.85 258.22,-398.11 263.99,-402.07"/>
<text text-anchor="middle" x="279.59" y="-428.7" font-family="Helvetica,sans-Serif" font-size="14.00">&#39;&lt;=30&#39;, &#39;&gt;40&#39;</text>
</g>
<!-- 3 -->
<g id="node4" class="node">
<title>3</title>
<ellipse fill="none" stroke="black" cx="190" cy="-250" rx="27" ry="18"/>
<text text-anchor="middle" x="190" y="-244.2" font-family="Helvetica,sans-Serif" font-size="14.00">Age</text>
</g>
<!-- 2&#45;&gt;3 -->
<g id="edge3" class="edge">
<title>2&#45;&gt;3</title>
<path fill="none" stroke="black" d="M267,-355.68C251.9,-335.16 225.83,-299.72 208.26,-275.83"/>
<polygon fill="black" stroke="black" points="211.17,-273.88 202.43,-267.9 205.53,-278.03 211.17,-273.88"/>
<text text-anchor="middle" x="251.45" y="-305.7" font-family="Helvetica,sans-Serif" font-size="14.00">&#39;No&#39;</text>
</g>
<!-- 8 -->
<g id="node9" class="node">
<title>8</title>
<ellipse fill="none" stroke="black" cx="353" cy="-250" rx="64.02" ry="18"/>
<text text-anchor="middle" x="353" y="-244.2" font-family="Helvetica,sans-Serif" font-size="14.00">Credit_Rating</text>
</g>
<!-- 2&#45;&gt;8 -->
<g id="edge8" class="edge">
<title>2&#45;&gt;8</title>
<path fill="none" stroke="black" d="M289.29,-355.18C301.54,-335.15 322.14,-301.46 336.59,-277.83"/>
<polygon fill="black" stroke="black" points="339.54,-279.72 341.77,-269.36 333.57,-276.07 339.54,-279.72"/>
<text text-anchor="middle" x="335.06" y="-305.7" font-family="Helvetica,sans-Serif" font-size="14.00">&#39;Yes&#39;</text>
</g>
<!-- 4 -->
<g id="node5" class="node">
<title>4</title>
<polygon fill="palegreen" stroke="black" points="54,-145 0,-145 0,-109 54,-109 54,-145"/>
<text text-anchor="middle" x="27" y="-121.2" font-family="Helvetica,sans-Serif" font-size="14.00">No</text>
</g>
<!-- 3&#45;&gt;4 -->
<g id="edge4" class="edge">
<title>3&#45;&gt;4</title>
<path fill="none" stroke="black" d="M172.56,-236.05C145.61,-216.04 93.41,-177.3 59.4,-152.05"/>
<polygon fill="black" stroke="black" points="61.66,-149.37 51.54,-146.22 57.49,-154.99 61.66,-149.37"/>
<text text-anchor="middle" x="97.23" y="-195.75" font-family="Helvetica,sans-Serif" font-size="14.00">&#39;&lt;=30&#39;</text>
</g>
<!-- 5 -->
<g id="node6" class="node">
<title>5</title>
<ellipse fill="none" stroke="black" cx="190" cy="-127" rx="64.02" ry="18"/>
<text text-anchor="middle" x="190" y="-121.2" font-family="Helvetica,sans-Serif" font-size="14.00">Credit_Rating</text>
</g>
<!-- 3&#45;&gt;5 -->
<g id="edge5" class="edge">
<title>3&#45;&gt;5</title>
<path fill="none" stroke="black" d="M190,-231.66C190,-212.08 190,-179.89 190,-156.58"/>
<polygon fill="black" stroke="black" points="193.5,-156.82 190,-146.82 186.5,-156.82 193.5,-156.82"/>
<text text-anchor="middle" x="204.62" y="-182.7" font-family="Helvetica,sans-Serif" font-size="14.00">&#39;&gt;40&#39;</text>
</g>
<!-- 6 -->
<g id="node7" class="node">
<title>6</title>
<polygon fill="palegreen" stroke="black" points="100,-36 46,-36 46,0 100,0 100,-36"/>
<text text-anchor="middle" x="73" y="-12.2" font-family="Helvetica,sans-Serif" font-size="14.00">No</text>
</g>
<!-- 5&#45;&gt;6 -->
<g id="edge6" class="edge">
<title>5&#45;&gt;6</title>
<path fill="none" stroke="black" d="M171.72,-109.28C152.54,-91.74 122.19,-63.98 100.2,-43.87"/>
<polygon fill="black" stroke="black" points="102.79,-41.5 93.05,-37.33 98.06,-46.66 102.79,-41.5"/>
<text text-anchor="middle" x="105.58" y="-78.28" font-family="Helvetica,sans-Serif" font-size="14.00">&#39;Excellent&#39;</text>
</g>
<!-- 7 -->
<g id="node8" class="node">
<title>7</title>
<polygon fill="lightcoral" stroke="black" points="226,-36 172,-36 172,0 226,0 226,-36"/>
<text text-anchor="middle" x="199" y="-12.2" font-family="Helvetica,sans-Serif" font-size="14.00">Yes</text>
</g>
<!-- 5&#45;&gt;7 -->
<g id="edge7" class="edge">
<title>5&#45;&gt;7</title>
<path fill="none" stroke="black" d="M191.45,-108.81C192.84,-92.27 194.96,-66.98 196.61,-47.44"/>
<polygon fill="black" stroke="black" points="200.08,-47.92 197.43,-37.66 193.1,-47.33 200.08,-47.92"/>
<text text-anchor="middle" x="179.4" y="-79.82" font-family="Helvetica,sans-Serif" font-size="14.00">&#39;Fair&#39;</text>
</g>
<!-- 9 -->
<g id="node10" class="node">
<title>9</title>
<ellipse fill="none" stroke="black" cx="353" cy="-127" rx="27" ry="18"/>
<text text-anchor="middle" x="353" y="-121.2" font-family="Helvetica,sans-Serif" font-size="14.00">Age</text>
</g>
<!-- 8&#45;&gt;9 -->
<g id="edge9" class="edge">
<title>8&#45;&gt;9</title>
<path fill="none" stroke="black" d="M353,-231.66C353,-212.08 353,-179.89 353,-156.58"/>
<polygon fill="black" stroke="black" points="356.5,-156.82 353,-146.82 349.5,-156.82 356.5,-156.82"/>
<text text-anchor="middle" x="383.38" y="-182.7" font-family="Helvetica,sans-Serif" font-size="14.00">&#39;Excellent&#39;</text>
</g>
<!-- 12 -->
<g id="node13" class="node">
<title>12</title>
<polygon fill="lightcoral" stroke="black" points="506,-145 452,-145 452,-109 506,-109 506,-145"/>
<text text-anchor="middle" x="479" y="-121.2" font-family="Helvetica,sans-Serif" font-size="14.00">Yes</text>
</g>
<!-- 8&#45;&gt;12 -->
<g id="edge12" class="edge">
<title>8&#45;&gt;12</title>
<path fill="none" stroke="black" d="M370.26,-232.43C391.6,-211.93 428.14,-176.84 452.91,-153.05"/>
<polygon fill="black" stroke="black" points="455.26,-155.65 460.05,-146.2 450.41,-150.6 455.26,-155.65"/>
<text text-anchor="middle" x="426.21" y="-194.44" font-family="Helvetica,sans-Serif" font-size="14.00">&#39;Fair&#39;</text>
</g>
<!-- 10 -->
<g id="node11" class="node">
<title>10</title>
<polygon fill="lightcoral" stroke="black" points="370,-36 316,-36 316,0 370,0 370,-36"/>
<text text-anchor="middle" x="343" y="-12.2" font-family="Helvetica,sans-Serif" font-size="14.00">Yes</text>
</g>
<!-- 9&#45;&gt;10 -->
<g id="edge10" class="edge">
<title>9&#45;&gt;10</title>
<path fill="none" stroke="black" d="M351.39,-108.81C349.85,-92.27 347.48,-66.98 345.66,-47.44"/>
<polygon fill="black" stroke="black" points="349.16,-47.29 344.74,-37.66 342.19,-47.94 349.16,-47.29"/>
<text text-anchor="middle" x="329.78" y="-79.82" font-family="Helvetica,sans-Serif" font-size="14.00">&#39;&lt;=30&#39;</text>
</g>
<!-- 11 -->
<g id="node12" class="node">
<title>11</title>
<polygon fill="palegreen" stroke="black" points="496,-36 442,-36 442,0 496,0 496,-36"/>
<text text-anchor="middle" x="469" y="-12.2" font-family="Helvetica,sans-Serif" font-size="14.00">No</text>
</g>
<!-- 9&#45;&gt;11 -->
<g id="edge11" class="edge">
<title>9&#45;&gt;11</title>
<path fill="none" stroke="black" d="M368.16,-112.01C386.9,-94.73 419.1,-65.03 442.07,-43.84"/>
<polygon fill="black" stroke="black" points="444.29,-46.56 449.27,-37.2 439.54,-41.41 444.29,-46.56"/>
<text text-anchor="middle" x="390.49" y="-79.62" font-family="Helvetica,sans-Serif" font-size="14.00">&#39;&gt;40&#39;</text>
</g>
</g>
</svg>
