<?xml version="1.0" encoding="UTF-8" standalone="no"?>
<!DOCTYPE svg PUBLIC "-//W3C//DTD SVG 1.1//EN"
 "http://www.w3.org/Graphics/SVG/1.1/DTD/svg11.dtd">
<!-- Generated by graphviz version 12.2.0 (20241103.1931)
 -->
<!-- Pages: 1 -->
<svg width="361pt" height="522pt"
 viewBox="0.00 0.00 361.12 522.00" xmlns="http://www.w3.org/2000/svg" xmlns:xlink="http://www.w3.org/1999/xlink">
<g id="graph0" class="graph" transform="scale(1 1) rotate(0) translate(4 518)">
<polygon fill="white" stroke="none" points="-4,4 -4,-518 357.12,-518 357.12,4 -4,4"/>
<!-- 0 -->
<g id="node1" class="node">
<title>0</title>
<ellipse fill="none" stroke="black" cx="158.62" cy="-496" rx="40.62" ry="18"/>
<text text-anchor="middle" x="158.62" y="-490.2" font-family="Helvetica,sans-Serif" font-size="14.00">Parents</text>
</g>
<!-- 1 -->
<g id="node2" class="node">
<title>1</title>
<ellipse fill="none" stroke="black" cx="85.62" cy="-373" rx="43.55" ry="18"/>
<text text-anchor="middle" x="85.62" y="-367.2" font-family="Helvetica,sans-Serif" font-size="14.00">Weather</text>
</g>
<!-- 0&#45;&gt;1 -->
<g id="edge1" class="edge">
<title>0&#45;&gt;1</title>
<path fill="none" stroke="black" d="M148.47,-478.18C136.33,-458.04 115.84,-424.08 101.57,-400.43"/>
<polygon fill="black" stroke="black" points="104.63,-398.73 96.47,-391.98 98.64,-402.35 104.63,-398.73"/>
<text text-anchor="middle" x="138.12" y="-428.7" font-family="Helvetica,sans-Serif" font-size="14.00">&#39;No&#39;</text>
</g>
<!-- 8 -->
<g id="node9" class="node">
<title>8</title>
<polygon fill="lightcoral" stroke="black" points="264.25,-391 201,-391 201,-355 264.25,-355 264.25,-391"/>
<text text-anchor="middle" x="232.62" y="-367.2" font-family="Helvetica,sans-Serif" font-size="14.00">Cinema</text>
</g>
<!-- 0&#45;&gt;8 -->
<g id="edge8" class="edge">
<title>0&#45;&gt;8</title>
<path fill="none" stroke="black" d="M168.91,-478.18C181.09,-458.26 201.53,-424.84 215.97,-401.23"/>
<polygon fill="black" stroke="black" points="218.92,-403.11 221.15,-392.76 212.95,-399.46 218.92,-403.11"/>
<text text-anchor="middle" x="177.82" y="-441.4" font-family="Helvetica,sans-Serif" font-size="14.00">&#39;Yes&#39;</text>
</g>
<!-- 2 -->
<g id="node3" class="node">
<title>2</title>
<polygon fill="lightcoral" stroke="black" points="57.25,-268 0,-268 0,-232 57.25,-232 57.25,-268"/>
<text text-anchor="middle" x="28.62" y="-244.2" font-family="Helvetica,sans-Serif" font-size="14.00">Stay in</text>
</g>
<!-- 1&#45;&gt;2 -->
<g id="edge2" class="edge">
<title>1&#45;&gt;2</title>
<path fill="none" stroke="black" d="M77.58,-354.92C68.25,-335.12 52.75,-302.22 41.69,-278.74"/>
<polygon fill="black" stroke="black" points="44.89,-277.31 37.46,-269.75 38.55,-280.29 44.89,-277.31"/>
<text text-anchor="middle" x="39.39" y="-318.53" font-family="Helvetica,sans-Serif" font-size="14.00">&#39;Rainy&#39;</text>
</g>
<!-- 3 -->
<g id="node4" class="node">
<title>3</title>
<ellipse fill="none" stroke="black" cx="172.62" cy="-250" rx="43.55" ry="18"/>
<text text-anchor="middle" x="172.62" y="-244.2" font-family="Helvetica,sans-Serif" font-size="14.00">Weather</text>
</g>
<!-- 1&#45;&gt;3 -->
<g id="edge3" class="edge">
<title>1&#45;&gt;3</title>
<path fill="none" stroke="black" d="M97.36,-355.68C111.95,-335.38 137.03,-300.5 154.2,-276.62"/>
<polygon fill="black" stroke="black" points="156.92,-278.84 159.92,-268.68 151.24,-274.75 156.92,-278.84"/>
<text text-anchor="middle" x="182.33" y="-305.7" font-family="Helvetica,sans-Serif" font-size="14.00">&#39;Windy&#39;, &#39;Sunny&#39;</text>
</g>
<!-- 4 -->
<g id="node5" class="node">
<title>4</title>
<polygon fill="lightcoral" stroke="black" points="137.12,-145 82.12,-145 82.12,-109 137.12,-109 137.12,-145"/>
<text text-anchor="middle" x="109.62" y="-121.2" font-family="Helvetica,sans-Serif" font-size="14.00">Tennis</text>
</g>
<!-- 3&#45;&gt;4 -->
<g id="edge4" class="edge">
<title>3&#45;&gt;4</title>
<path fill="none" stroke="black" d="M163.73,-231.92C153.38,-212.04 136.14,-178.92 123.9,-155.42"/>
<polygon fill="black" stroke="black" points="127.1,-153.98 119.38,-146.73 120.89,-157.21 127.1,-153.98"/>
<text text-anchor="middle" x="121.69" y="-195.37" font-family="Helvetica,sans-Serif" font-size="14.00">&#39;Sunny&#39;</text>
</g>
<!-- 5 -->
<g id="node6" class="node">
<title>5</title>
<ellipse fill="none" stroke="black" cx="246.62" cy="-127" rx="37.21" ry="18"/>
<text text-anchor="middle" x="246.62" y="-121.2" font-family="Helvetica,sans-Serif" font-size="14.00">Money</text>
</g>
<!-- 3&#45;&gt;5 -->
<g id="edge5" class="edge">
<title>3&#45;&gt;5</title>
<path fill="none" stroke="black" d="M182.91,-232.18C195.23,-212.04 216,-178.08 230.46,-154.43"/>
<polygon fill="black" stroke="black" points="233.4,-156.33 235.63,-145.97 227.43,-152.68 233.4,-156.33"/>
<text text-anchor="middle" x="236.18" y="-182.7" font-family="Helvetica,sans-Serif" font-size="14.00">&#39;Windy&#39;</text>
</g>
<!-- 6 -->
<g id="node7" class="node">
<title>6</title>
<polygon fill="lightcoral" stroke="black" points="208.25,-36 145,-36 145,0 208.25,0 208.25,-36"/>
<text text-anchor="middle" x="176.62" y="-12.2" font-family="Helvetica,sans-Serif" font-size="14.00">Cinema</text>
</g>
<!-- 5&#45;&gt;6 -->
<g id="edge6" class="edge">
<title>5&#45;&gt;6</title>
<path fill="none" stroke="black" d="M235.99,-109.75C224.93,-92.84 207.43,-66.09 194.29,-46"/>
<polygon fill="black" stroke="black" points="197.29,-44.19 188.88,-37.74 191.43,-48.02 197.29,-44.19"/>
<text text-anchor="middle" x="197.89" y="-79.58" font-family="Helvetica,sans-Serif" font-size="14.00">&#39;Poor&#39;</text>
</g>
<!-- 7 -->
<g id="node8" class="node">
<title>7</title>
<polygon fill="lightcoral" stroke="black" points="353.12,-36 280.12,-36 280.12,0 353.12,0 353.12,-36"/>
<text text-anchor="middle" x="316.62" y="-12.2" font-family="Helvetica,sans-Serif" font-size="14.00">Shopping</text>
</g>
<!-- 5&#45;&gt;7 -->
<g id="edge7" class="edge">
<title>5&#45;&gt;7</title>
<path fill="none" stroke="black" d="M257.26,-109.75C268.32,-92.84 285.82,-66.09 298.96,-46"/>
<polygon fill="black" stroke="black" points="301.82,-48.02 304.37,-37.74 295.96,-44.19 301.82,-48.02"/>
<text text-anchor="middle" x="261.61" y="-79.58" font-family="Helvetica,sans-Serif" font-size="14.00">&#39;Rich&#39;</text>
</g>
</g>
</svg>
