<?xml version="1.0" encoding="UTF-8" standalone="no"?>
<!DOCTYPE svg PUBLIC "-//W3C//DTD SVG 1.1//EN"
 "http://www.w3.org/Graphics/SVG/1.1/DTD/svg11.dtd">
<!-- Generated by graphviz version 12.2.0 (20241103.1931)
 -->
<!-- Pages: 1 -->
<svg width="492pt" height="276pt"
 viewBox="0.00 0.00 492.00 276.00" xmlns="http://www.w3.org/2000/svg" xmlns:xlink="http://www.w3.org/1999/xlink">
<g id="graph0" class="graph" transform="scale(1 1) rotate(0) translate(4 272)">
<polygon fill="white" stroke="none" points="-4,4 -4,-272 488,-272 488,4 -4,4"/>
<!-- 0 -->
<g id="node1" class="node">
<title>0</title>
<ellipse fill="none" stroke="black" cx="167" cy="-250" rx="27" ry="18"/>
<text text-anchor="middle" x="167" y="-244.2" font-family="Helvetica,sans-Serif" font-size="14.00">Age</text>
</g>
<!-- 1 -->
<g id="node2" class="node">
<title>1</title>
<polygon fill="lightcoral" stroke="black" points="54,-145 0,-145 0,-109 54,-109 54,-145"/>
<text text-anchor="middle" x="27" y="-121.2" font-family="Helvetica,sans-Serif" font-size="14.00">Yes</text>
</g>
<!-- 0&#45;&gt;1 -->
<g id="edge1" class="edge">
<title>0&#45;&gt;1</title>
<path fill="none" stroke="black" d="M150.94,-235.12C127.64,-214.98 84.1,-177.35 55.33,-152.49"/>
<polygon fill="black" stroke="black" points="57.91,-150.09 48.06,-146.2 53.34,-155.39 57.91,-150.09"/>
<text text-anchor="middle" x="85.89" y="-195.5" font-family="Helvetica,sans-Serif" font-size="14.00">31&#45;40</text>
</g>
<!-- 2 -->
<g id="node3" class="node">
<title>2</title>
<ellipse fill="none" stroke="black" cx="167" cy="-127" rx="40.62" ry="18"/>
<text text-anchor="middle" x="167" y="-121.2" font-family="Helvetica,sans-Serif" font-size="14.00">Student</text>
</g>
<!-- 0&#45;&gt;2 -->
<g id="edge2" class="edge">
<title>0&#45;&gt;2</title>
<path fill="none" stroke="black" d="M167,-231.66C167,-212.08 167,-179.89 167,-156.58"/>
<polygon fill="black" stroke="black" points="170.5,-156.82 167,-146.82 163.5,-156.82 170.5,-156.82"/>
<text text-anchor="middle" x="182.75" y="-182.7" font-family="Helvetica,sans-Serif" font-size="14.00">&lt;=30</text>
</g>
<!-- 5 -->
<g id="node6" class="node">
<title>5</title>
<ellipse fill="none" stroke="black" cx="344" cy="-127" rx="64.02" ry="18"/>
<text text-anchor="middle" x="344" y="-121.2" font-family="Helvetica,sans-Serif" font-size="14.00">Credit_Rating</text>
</g>
<!-- 0&#45;&gt;5 -->
<g id="edge5" class="edge">
<title>0&#45;&gt;5</title>
<path fill="none" stroke="black" d="M185.28,-236.51C214.95,-216.22 274.03,-175.83 311.14,-150.46"/>
<polygon fill="black" stroke="black" points="313,-153.43 319.28,-144.9 309.05,-147.65 313,-153.43"/>
<text text-anchor="middle" x="277.72" y="-182.7" font-family="Helvetica,sans-Serif" font-size="14.00">&gt;40</text>
</g>
<!-- 3 -->
<g id="node4" class="node">
<title>3</title>
<polygon fill="palegreen" stroke="black" points="81,-36 27,-36 27,0 81,0 81,-36"/>
<text text-anchor="middle" x="54" y="-12.2" font-family="Helvetica,sans-Serif" font-size="14.00">No</text>
</g>
<!-- 2&#45;&gt;3 -->
<g id="edge3" class="edge">
<title>2&#45;&gt;3</title>
<path fill="none" stroke="black" d="M150.33,-110.21C131.9,-92.76 101.97,-64.42 80.36,-43.96"/>
<polygon fill="black" stroke="black" points="83.01,-41.65 73.34,-37.31 78.2,-46.73 83.01,-41.65"/>
<text text-anchor="middle" x="106.72" y="-78.79" font-family="Helvetica,sans-Serif" font-size="14.00">No</text>
</g>
<!-- 4 -->
<g id="node5" class="node">
<title>4</title>
<polygon fill="lightcoral" stroke="black" points="207,-36 153,-36 153,0 207,0 207,-36"/>
<text text-anchor="middle" x="180" y="-12.2" font-family="Helvetica,sans-Serif" font-size="14.00">Yes</text>
</g>
<!-- 2&#45;&gt;4 -->
<g id="edge4" class="edge">
<title>2&#45;&gt;4</title>
<path fill="none" stroke="black" d="M169.09,-108.81C171.1,-92.27 174.17,-66.98 176.54,-47.44"/>
<polygon fill="black" stroke="black" points="180,-48 177.73,-37.65 173.05,-47.16 180,-48"/>
<text text-anchor="middle" x="161.19" y="-79.82" font-family="Helvetica,sans-Serif" font-size="14.00">Yes</text>
</g>
<!-- 6 -->
<g id="node7" class="node">
<title>6</title>
<polygon fill="palegreen" stroke="black" points="358,-36 304,-36 304,0 358,0 358,-36"/>
<text text-anchor="middle" x="331" y="-12.2" font-family="Helvetica,sans-Serif" font-size="14.00">No</text>
</g>
<!-- 5&#45;&gt;6 -->
<g id="edge6" class="edge">
<title>5&#45;&gt;6</title>
<path fill="none" stroke="black" d="M341.91,-108.81C339.9,-92.27 336.83,-66.98 334.46,-47.44"/>
<polygon fill="black" stroke="black" points="337.95,-47.16 333.27,-37.65 331,-48 337.95,-47.16"/>
<text text-anchor="middle" x="310.81" y="-79.82" font-family="Helvetica,sans-Serif" font-size="14.00">Excellent</text>
</g>
<!-- 7 -->
<g id="node8" class="node">
<title>7</title>
<polygon fill="lightcoral" stroke="black" points="484,-36 430,-36 430,0 484,0 484,-36"/>
<text text-anchor="middle" x="457" y="-12.2" font-family="Helvetica,sans-Serif" font-size="14.00">Yes</text>
</g>
<!-- 5&#45;&gt;7 -->
<g id="edge7" class="edge">
<title>5&#45;&gt;7</title>
<path fill="none" stroke="black" d="M361.66,-109.28C380.1,-91.82 409.24,-64.23 430.45,-44.14"/>
<polygon fill="black" stroke="black" points="432.77,-46.77 437.62,-37.35 427.95,-41.69 432.77,-46.77"/>
<text text-anchor="middle" x="384.43" y="-78.41" font-family="Helvetica,sans-Serif" font-size="14.00">Fair</text>
</g>
</g>
</svg>
