<?xml version="1.0" encoding="UTF-8" standalone="no"?>
<!DOCTYPE svg PUBLIC "-//W3C//DTD SVG 1.1//EN"
 "http://www.w3.org/Graphics/SVG/1.1/DTD/svg11.dtd">
<!-- Generated by graphviz version 11.0.0 (20240428.1522)
 -->
<!-- Pages: 1 -->
<svg width="492pt" height="275pt"
 viewBox="0.00 0.00 492.00 275.00" xmlns="http://www.w3.org/2000/svg" xmlns:xlink="http://www.w3.org/1999/xlink">
<g id="graph0" class="graph" transform="scale(1 1) rotate(0) translate(4 271)">
<polygon fill="white" stroke="none" points="-4,4 -4,-271 488,-271 488,4 -4,4"/>
<!-- 0 -->
<g id="node1" class="node">
<title>0</title>
<ellipse fill="none" stroke="black" cx="167" cy="-249" rx="27" ry="18"/>
<text text-anchor="middle" x="167" y="-243.2" font-family="Helvetica,sans-Serif" font-size="14.00">Age</text>
</g>
<!-- 1 -->
<g id="node2" class="node">
<title>1</title>
<polygon fill="palegreen" stroke="black" points="54,-144 0,-144 0,-108 54,-108 54,-144"/>
<text text-anchor="middle" x="27" y="-120.2" font-family="Helvetica,sans-Serif" font-size="14.00">Yes</text>
</g>
<!-- 0&#45;&gt;1 -->
<g id="edge1" class="edge">
<title>0&#45;&gt;1</title>
<path fill="none" stroke="black" d="M150.94,-234.12C127.64,-213.98 84.1,-176.35 55.33,-151.49"/>
<polygon fill="black" stroke="black" points="57.91,-149.09 48.06,-145.2 53.34,-154.39 57.91,-149.09"/>
<text text-anchor="middle" x="85.89" y="-194.5" font-family="Helvetica,sans-Serif" font-size="14.00">31&#45;40</text>
</g>
<!-- 2 -->
<g id="node3" class="node">
<title>2</title>
<ellipse fill="none" stroke="black" cx="167" cy="-126" rx="40.62" ry="18"/>
<text text-anchor="middle" x="167" y="-120.2" font-family="Helvetica,sans-Serif" font-size="14.00">Student</text>
</g>
<!-- 0&#45;&gt;2 -->
<g id="edge2" class="edge">
<title>0&#45;&gt;2</title>
<path fill="none" stroke="black" d="M167,-230.66C167,-211.08 167,-178.89 167,-155.58"/>
<polygon fill="black" stroke="black" points="170.5,-155.82 167,-145.82 163.5,-155.82 170.5,-155.82"/>
<text text-anchor="middle" x="182.75" y="-181.7" font-family="Helvetica,sans-Serif" font-size="14.00">&lt;=30</text>
</g>
<!-- 5 -->
<g id="node6" class="node">
<title>5</title>
<ellipse fill="none" stroke="black" cx="344" cy="-126" rx="64.02" ry="18"/>
<text text-anchor="middle" x="344" y="-120.2" font-family="Helvetica,sans-Serif" font-size="14.00">Credit_Rating</text>
</g>
<!-- 0&#45;&gt;5 -->
<g id="edge5" class="edge">
<title>0&#45;&gt;5</title>
<path fill="none" stroke="black" d="M185.28,-235.51C214.95,-215.22 274.03,-174.83 311.14,-149.46"/>
<polygon fill="black" stroke="black" points="313,-152.43 319.28,-143.9 309.05,-146.65 313,-152.43"/>
<text text-anchor="middle" x="277.62" y="-181.7" font-family="Helvetica,sans-Serif" font-size="14.00">&gt;40</text>
</g>
<!-- 3 -->
<g id="node4" class="node">
<title>3</title>
<polygon fill="lightcoral" stroke="black" points="81,-36 27,-36 27,0 81,0 81,-36"/>
<text text-anchor="middle" x="54" y="-12.2" font-family="Helvetica,sans-Serif" font-size="14.00">No</text>
</g>
<!-- 2&#45;&gt;3 -->
<g id="edge3" class="edge">
<title>2&#45;&gt;3</title>
<path fill="none" stroke="black" d="M150.33,-109.36C132.01,-92.18 102.32,-64.33 80.74,-44.09"/>
<polygon fill="black" stroke="black" points="83.42,-41.79 73.73,-37.51 78.63,-46.9 83.42,-41.79"/>
<text text-anchor="middle" x="106.91" y="-78.42" font-family="Helvetica,sans-Serif" font-size="14.00">No</text>
</g>
<!-- 4 -->
<g id="node5" class="node">
<title>4</title>
<polygon fill="palegreen" stroke="black" points="207,-36 153,-36 153,0 207,0 207,-36"/>
<text text-anchor="middle" x="180" y="-12.2" font-family="Helvetica,sans-Serif" font-size="14.00">Yes</text>
</g>
<!-- 2&#45;&gt;4 -->
<g id="edge4" class="edge">
<title>2&#45;&gt;4</title>
<path fill="none" stroke="black" d="M169.09,-107.97C171.09,-91.69 174.13,-66.82 176.5,-47.52"/>
<polygon fill="black" stroke="black" points="179.95,-48.19 177.69,-37.84 173,-47.34 179.95,-48.19"/>
<text text-anchor="middle" x="161.17" y="-79.44" font-family="Helvetica,sans-Serif" font-size="14.00">Yes</text>
</g>
<!-- 6 -->
<g id="node7" class="node">
<title>6</title>
<polygon fill="lightcoral" stroke="black" points="358,-36 304,-36 304,0 358,0 358,-36"/>
<text text-anchor="middle" x="331" y="-12.2" font-family="Helvetica,sans-Serif" font-size="14.00">No</text>
</g>
<!-- 5&#45;&gt;6 -->
<g id="edge6" class="edge">
<title>5&#45;&gt;6</title>
<path fill="none" stroke="black" d="M341.91,-107.97C339.91,-91.69 336.87,-66.82 334.5,-47.52"/>
<polygon fill="black" stroke="black" points="338,-47.34 333.31,-37.84 331.05,-48.19 338,-47.34"/>
<text text-anchor="middle" x="310.83" y="-79.44" font-family="Helvetica,sans-Serif" font-size="14.00">Excellent</text>
</g>
<!-- 7 -->
<g id="node8" class="node">
<title>7</title>
<polygon fill="palegreen" stroke="black" points="484,-36 430,-36 430,0 484,0 484,-36"/>
<text text-anchor="middle" x="457" y="-12.2" font-family="Helvetica,sans-Serif" font-size="14.00">Yes</text>
</g>
<!-- 5&#45;&gt;7 -->
<g id="edge7" class="edge">
<title>5&#45;&gt;7</title>
<path fill="none" stroke="black" d="M361.66,-108.44C380.1,-91.14 409.24,-63.81 430.45,-43.91"/>
<polygon fill="black" stroke="black" points="432.72,-46.58 437.62,-37.18 427.93,-41.47 432.72,-46.58"/>
<text text-anchor="middle" x="384.43" y="-77.87" font-family="Helvetica,sans-Serif" font-size="14.00">Fair</text>
</g>
</g>
</svg>
