<?xml version="1.0" encoding="UTF-8" standalone="no"?>
<!DOCTYPE svg PUBLIC "-//W3C//DTD SVG 1.1//EN"
 "http://www.w3.org/Graphics/SVG/1.1/DTD/svg11.dtd">
<!-- Generated by graphviz version 12.2.0 (20241103.1931)
 -->
<!-- Pages: 1 -->
<svg width="744pt" height="399pt"
 viewBox="0.00 0.00 744.25 399.00" xmlns="http://www.w3.org/2000/svg" xmlns:xlink="http://www.w3.org/1999/xlink">
<g id="graph0" class="graph" transform="scale(1 1) rotate(0) translate(4 395)">
<polygon fill="white" stroke="none" points="-4,4 -4,-395 740.25,-395 740.25,4 -4,4"/>
<!-- 0 -->
<g id="node1" class="node">
<title>0</title>
<ellipse fill="none" stroke="black" cx="347.62" cy="-373" rx="43.55" ry="18"/>
<text text-anchor="middle" x="347.62" y="-367.2" font-family="Helvetica,sans-Serif" font-size="14.00">Weather</text>
</g>
<!-- 1 -->
<g id="node2" class="node">
<title>1</title>
<ellipse fill="none" stroke="black" cx="160.62" cy="-250" rx="40.62" ry="18"/>
<text text-anchor="middle" x="160.62" y="-244.2" font-family="Helvetica,sans-Serif" font-size="14.00">Parents</text>
</g>
<!-- 0&#45;&gt;1 -->
<g id="edge1" class="edge">
<title>0&#45;&gt;1</title>
<path fill="none" stroke="black" d="M325.07,-357.4C291.99,-336 230.16,-295.99 192.46,-271.6"/>
<polygon fill="black" stroke="black" points="194.54,-268.78 184.24,-266.28 190.74,-274.65 194.54,-268.78"/>
<text text-anchor="middle" x="282.57" y="-305.7" font-family="Helvetica,sans-Serif" font-size="14.00">Rainy</text>
</g>
<!-- 4 -->
<g id="node5" class="node">
<title>4</title>
<ellipse fill="none" stroke="black" cx="347.62" cy="-250" rx="40.62" ry="18"/>
<text text-anchor="middle" x="347.62" y="-244.2" font-family="Helvetica,sans-Serif" font-size="14.00">Parents</text>
</g>
<!-- 0&#45;&gt;4 -->
<g id="edge4" class="edge">
<title>0&#45;&gt;4</title>
<path fill="none" stroke="black" d="M347.62,-354.66C347.62,-335.08 347.62,-302.89 347.62,-279.58"/>
<polygon fill="black" stroke="black" points="351.13,-279.82 347.63,-269.82 344.13,-279.82 351.13,-279.82"/>
<text text-anchor="middle" x="366.75" y="-305.7" font-family="Helvetica,sans-Serif" font-size="14.00">Sunny</text>
</g>
<!-- 7 -->
<g id="node8" class="node">
<title>7</title>
<ellipse fill="none" stroke="black" cx="563.62" cy="-250" rx="40.62" ry="18"/>
<text text-anchor="middle" x="563.62" y="-244.2" font-family="Helvetica,sans-Serif" font-size="14.00">Parents</text>
</g>
<!-- 0&#45;&gt;7 -->
<g id="edge7" class="edge">
<title>0&#45;&gt;7</title>
<path fill="none" stroke="black" d="M372.83,-357.88C411.56,-336.18 485.82,-294.59 529.39,-270.18"/>
<polygon fill="black" stroke="black" points="530.91,-273.34 537.93,-265.4 527.49,-267.23 530.91,-273.34"/>
<text text-anchor="middle" x="487.68" y="-305.7" font-family="Helvetica,sans-Serif" font-size="14.00">Windy</text>
</g>
<!-- 2 -->
<g id="node3" class="node">
<title>2</title>
<polygon fill="lightcoral" stroke="black" points="57.25,-145 0,-145 0,-109 57.25,-109 57.25,-145"/>
<text text-anchor="middle" x="28.62" y="-121.2" font-family="Helvetica,sans-Serif" font-size="14.00">Stay in</text>
</g>
<!-- 1&#45;&gt;2 -->
<g id="edge2" class="edge">
<title>1&#45;&gt;2</title>
<path fill="none" stroke="black" d="M143.64,-233.43C121.49,-213.13 82.48,-177.37 56.1,-153.19"/>
<polygon fill="black" stroke="black" points="58.53,-150.67 48.8,-146.49 53.8,-155.83 58.53,-150.67"/>
<text text-anchor="middle" x="91.24" y="-195.01" font-family="Helvetica,sans-Serif" font-size="14.00">No</text>
</g>
<!-- 3 -->
<g id="node4" class="node">
<title>3</title>
<polygon fill="lightcoral" stroke="black" points="192.25,-145 129,-145 129,-109 192.25,-109 192.25,-145"/>
<text text-anchor="middle" x="160.62" y="-121.2" font-family="Helvetica,sans-Serif" font-size="14.00">Cinema</text>
</g>
<!-- 1&#45;&gt;3 -->
<g id="edge3" class="edge">
<title>1&#45;&gt;3</title>
<path fill="none" stroke="black" d="M160.62,-231.66C160.62,-212.08 160.62,-179.89 160.62,-156.58"/>
<polygon fill="black" stroke="black" points="164.13,-156.82 160.63,-146.82 157.13,-156.82 164.13,-156.82"/>
<text text-anchor="middle" x="149" y="-195.82" font-family="Helvetica,sans-Serif" font-size="14.00">Yes</text>
</g>
<!-- 5 -->
<g id="node6" class="node">
<title>5</title>
<polygon fill="lightcoral" stroke="black" points="319.12,-145 264.12,-145 264.12,-109 319.12,-109 319.12,-145"/>
<text text-anchor="middle" x="291.62" y="-121.2" font-family="Helvetica,sans-Serif" font-size="14.00">Tennis</text>
</g>
<!-- 4&#45;&gt;5 -->
<g id="edge5" class="edge">
<title>4&#45;&gt;5</title>
<path fill="none" stroke="black" d="M339.72,-231.92C330.56,-212.12 315.33,-179.22 304.46,-155.74"/>
<polygon fill="black" stroke="black" points="307.68,-154.36 300.31,-146.76 301.33,-157.3 307.68,-154.36"/>
<text text-anchor="middle" x="313.47" y="-195.53" font-family="Helvetica,sans-Serif" font-size="14.00">No</text>
</g>
<!-- 6 -->
<g id="node7" class="node">
<title>6</title>
<polygon fill="lightcoral" stroke="black" points="454.25,-145 391,-145 391,-109 454.25,-109 454.25,-145"/>
<text text-anchor="middle" x="422.62" y="-121.2" font-family="Helvetica,sans-Serif" font-size="14.00">Cinema</text>
</g>
<!-- 4&#45;&gt;6 -->
<g id="edge6" class="edge">
<title>4&#45;&gt;6</title>
<path fill="none" stroke="black" d="M358.05,-232.18C370.4,-212.26 391.11,-178.84 405.75,-155.23"/>
<polygon fill="black" stroke="black" points="408.71,-157.1 411,-146.75 402.76,-153.41 408.71,-157.1"/>
<text text-anchor="middle" x="370.28" y="-195.4" font-family="Helvetica,sans-Serif" font-size="14.00">Yes</text>
</g>
<!-- 8 -->
<g id="node9" class="node">
<title>8</title>
<ellipse fill="none" stroke="black" cx="563.62" cy="-127" rx="37.21" ry="18"/>
<text text-anchor="middle" x="563.62" y="-121.2" font-family="Helvetica,sans-Serif" font-size="14.00">Money</text>
</g>
<!-- 7&#45;&gt;8 -->
<g id="edge8" class="edge">
<title>7&#45;&gt;8</title>
<path fill="none" stroke="black" d="M563.62,-231.66C563.62,-212.08 563.62,-179.89 563.62,-156.58"/>
<polygon fill="black" stroke="black" points="567.13,-156.82 563.63,-146.82 560.13,-156.82 567.13,-156.82"/>
<text text-anchor="middle" x="572.25" y="-182.7" font-family="Helvetica,sans-Serif" font-size="14.00">No</text>
</g>
<!-- 11 -->
<g id="node12" class="node">
<title>11</title>
<polygon fill="lightcoral" stroke="black" points="736.25,-145 673,-145 673,-109 736.25,-109 736.25,-145"/>
<text text-anchor="middle" x="704.62" y="-121.2" font-family="Helvetica,sans-Serif" font-size="14.00">Cinema</text>
</g>
<!-- 7&#45;&gt;11 -->
<g id="edge11" class="edge">
<title>7&#45;&gt;11</title>
<path fill="none" stroke="black" d="M581.77,-233.43C605.53,-213.04 647.46,-177.06 675.64,-152.87"/>
<polygon fill="black" stroke="black" points="677.81,-155.62 683.12,-146.45 673.25,-150.31 677.81,-155.62"/>
<text text-anchor="middle" x="617.08" y="-194.85" font-family="Helvetica,sans-Serif" font-size="14.00">Yes</text>
</g>
<!-- 9 -->
<g id="node10" class="node">
<title>9</title>
<polygon fill="lightcoral" stroke="black" points="525.25,-36 462,-36 462,0 525.25,0 525.25,-36"/>
<text text-anchor="middle" x="493.62" y="-12.2" font-family="Helvetica,sans-Serif" font-size="14.00">Cinema</text>
</g>
<!-- 8&#45;&gt;9 -->
<g id="edge9" class="edge">
<title>8&#45;&gt;9</title>
<path fill="none" stroke="black" d="M552.99,-109.75C541.93,-92.84 524.43,-66.09 511.29,-46"/>
<polygon fill="black" stroke="black" points="514.29,-44.19 505.88,-37.74 508.43,-48.02 514.29,-44.19"/>
<text text-anchor="middle" x="517.89" y="-79.58" font-family="Helvetica,sans-Serif" font-size="14.00">Poor</text>
</g>
<!-- 10 -->
<g id="node11" class="node">
<title>10</title>
<polygon fill="lightcoral" stroke="black" points="670.12,-36 597.12,-36 597.12,0 670.12,0 670.12,-36"/>
<text text-anchor="middle" x="633.62" y="-12.2" font-family="Helvetica,sans-Serif" font-size="14.00">Shopping</text>
</g>
<!-- 8&#45;&gt;10 -->
<g id="edge10" class="edge">
<title>8&#45;&gt;10</title>
<path fill="none" stroke="black" d="M574.26,-109.75C585.32,-92.84 602.82,-66.09 615.96,-46"/>
<polygon fill="black" stroke="black" points="618.82,-48.02 621.37,-37.74 612.96,-44.19 618.82,-48.02"/>
<text text-anchor="middle" x="581.61" y="-79.58" font-family="Helvetica,sans-Serif" font-size="14.00">Rich</text>
</g>
</g>
</svg>
